<svg xmlns="http://www.w3.org/2000/svg" width="255.33" height="35" viewBox="0 0 255.33 35"><rect class="svg__rect" x="0" y="0" width="117.03" height="35" fill="#E46C17"/><rect class="svg__rect" x="115.03" y="0" width="140.3" height="35" fill="#D35B09"/><path class="svg__text" d="M17.33 22L14.22 22L14.22 13.47L17.14 13.47Q18.59 13.47 19.34 14.05Q20.10 14.63 20.10 15.78L20.10 15.78Q20.10 16.36 19.78 16.83Q19.47 17.30 18.86 17.56L18.86 17.56Q19.55 17.75 19.93 18.26Q20.31 18.78 20.31 19.51L20.31 19.51Q20.31 20.71 19.53 21.36Q18.76 22 17.33 22L17.33 22ZM15.70 18.15L15.70 20.82L17.35 20.82Q18.04 20.82 18.44 20.47Q18.83 20.13 18.83 19.51L18.83 19.51Q18.83 18.18 17.47 18.15L17.47 18.15L15.70 18.15ZM15.70 14.66L15.70 17.06L17.15 17.06Q17.84 17.06 18.23 16.75Q18.62 16.43 18.62 15.86L18.62 15.86Q18.62 15.23 18.26 14.95Q17.90 14.66 17.14 14.66L17.14 14.66L15.70 14.66ZM24.64 19.16L24.64 19.16L24.64 13.47L26.12 13.47L26.12 19.18Q26.12 20.03 26.55 20.48Q26.98 20.93 27.83 20.93L27.83 20.93Q29.54 20.93 29.54 19.13L29.54 19.13L29.54 13.47L31.02 13.47L31.02 19.17Q31.02 20.53 30.15 21.32Q29.28 22.12 27.83 22.12L27.83 22.12Q26.36 22.12 25.50 21.33Q24.64 20.55 24.64 19.16ZM37.15 22L35.67 22L35.67 13.47L37.15 13.47L37.15 22ZM47.32 22L41.96 22L41.96 13.47L43.44 13.47L43.44 20.82L47.32 20.82L47.32 22ZM53.12 14.66L50.49 14.66L50.49 13.47L57.25 13.47L57.25 14.66L54.59 14.66L54.59 22L53.12 22L53.12 14.66ZM68.37 22L66.40 13.47L67.87 13.47L69.20 19.88L70.82 13.47L72.07 13.47L73.68 19.89L74.99 13.47L76.46 13.47L74.49 22L73.07 22L71.45 15.77L69.79 22L68.37 22ZM82.10 22L80.62 22L80.62 13.47L82.10 13.47L82.10 22ZM88.59 14.66L85.95 14.66L85.95 13.47L92.72 13.47L92.72 14.66L90.06 14.66L90.06 22L88.59 22L88.59 14.66ZM97.96 22L96.48 22L96.48 13.47L97.96 13.47L97.96 17.02L101.77 17.02L101.77 13.47L103.25 13.47L103.25 22L101.77 22L101.77 18.21L97.96 18.21L97.96 22Z" fill="#FFFFFF"/><path class="svg__text" d="M131.60 22L129.22 22L129.22 13.60L131.60 13.60L131.60 16.76L134.84 16.76L134.84 13.60L137.21 13.60L137.21 22L134.84 22L134.84 18.72L131.60 18.72L131.60 22ZM149.12 22L142.37 22L142.37 13.60L148.96 13.60L148.96 15.44L144.73 15.44L144.73 16.85L148.46 16.85L148.46 18.63L144.73 18.63L144.73 20.17L149.12 20.17L149.12 22ZM155.77 22L153.06 22L156.12 17.75L153.19 13.60L155.87 13.60L157.55 16.02L159.20 13.60L161.77 13.60L158.84 17.66L161.97 22L159.23 22L157.49 19.40L155.77 22ZM165.82 17.80L165.82 17.80Q165.82 16.55 166.42 15.55Q167.03 14.56 168.09 14.00Q169.16 13.43 170.49 13.43L170.49 13.43Q171.82 13.43 172.88 14.00Q173.94 14.56 174.55 15.55Q175.16 16.55 175.16 17.80L175.16 17.80Q175.16 19.05 174.55 20.04Q173.94 21.04 172.88 21.60Q171.82 22.17 170.49 22.17L170.49 22.17Q169.16 22.17 168.09 21.60Q167.03 21.04 166.42 20.04Q165.82 19.05 165.82 17.80ZM168.22 17.80L168.22 17.80Q168.22 18.51 168.52 19.05Q168.82 19.60 169.34 19.90Q169.85 20.20 170.49 20.20L170.49 20.20Q171.12 20.20 171.64 19.90Q172.16 19.60 172.45 19.05Q172.75 18.51 172.75 17.80L172.75 17.80Q172.75 17.09 172.45 16.54Q172.16 16 171.64 15.70Q171.12 15.40 170.49 15.40L170.49 15.40Q169.85 15.40 169.33 15.70Q168.82 16 168.52 16.54Q168.22 17.09 168.22 17.80ZM179.42 19.80L179.42 19.80Q179.42 19.01 179.84 18.42Q180.26 17.82 181.17 17.33L181.17 17.33Q180.36 16.52 180.36 15.64L180.36 15.64Q180.36 15.00 180.71 14.51Q181.06 14.02 181.70 13.75Q182.34 13.48 183.19 13.48L183.19 13.48Q184.35 13.48 185.07 14.03Q185.78 14.57 185.78 15.50L185.78 15.50Q185.78 16.15 185.40 16.65Q185.02 17.15 184.22 17.59L184.22 17.59L185.44 18.69Q185.68 18.16 185.81 17.49L185.81 17.49L187.65 18.04Q187.41 19.12 186.87 19.95L186.87 19.95L187.76 20.74L186.53 22.15L185.59 21.30Q185.00 21.72 184.28 21.95Q183.56 22.17 182.77 22.17L182.77 22.17Q181.82 22.17 181.05 21.86Q180.28 21.55 179.85 21.02Q179.42 20.48 179.42 19.80ZM181.65 19.55L181.65 19.55Q181.65 19.94 182.00 20.18Q182.34 20.43 182.94 20.43L182.94 20.43Q183.63 20.42 184.22 20.08L184.22 20.08L182.40 18.47Q182.00 18.71 181.83 18.97Q181.65 19.23 181.65 19.55ZM182.44 15.60L182.44 15.60Q182.44 15.81 182.56 15.99Q182.67 16.18 182.98 16.48L182.98 16.48Q183.46 16.23 183.66 16.01Q183.86 15.78 183.86 15.54L183.86 15.54Q183.86 15.28 183.68 15.13Q183.51 14.98 183.19 14.98L183.19 14.98Q182.84 14.98 182.64 15.15Q182.44 15.33 182.44 15.60ZM194.77 22L192.39 22L192.39 13.60L198.99 13.60L198.99 15.44L194.77 15.44L194.77 17.28L198.48 17.28L198.48 19.12L194.77 19.12L194.77 22ZM209.97 22L203.58 22L203.58 13.60L205.96 13.60L205.96 20.11L209.97 20.11L209.97 22ZM214.31 18.26L214.31 18.26L214.31 13.60L216.69 13.60L216.69 18.19Q216.69 20.20 218.29 20.20L218.29 20.20Q219.87 20.20 219.87 18.19L219.87 18.19L219.87 13.60L222.21 13.60L222.21 18.26Q222.21 20.13 221.17 21.15Q220.13 22.17 218.26 22.17L218.26 22.17Q216.39 22.17 215.35 21.15Q214.31 20.13 214.31 18.26ZM229.68 22L227.30 22L227.30 13.60L229.68 13.60L229.68 22ZM238.82 22L234.85 22L234.85 13.60L238.82 13.60Q240.21 13.60 241.27 14.12Q242.34 14.63 242.93 15.58Q243.52 16.53 243.52 17.80L243.52 17.80Q243.52 19.07 242.93 20.02Q242.34 20.97 241.27 21.48Q240.21 22 238.82 22L238.82 22ZM237.23 15.50L237.23 20.10L238.73 20.10Q239.81 20.10 240.46 19.49Q241.11 18.88 241.11 17.80L241.11 17.80Q241.11 16.72 240.46 16.11Q239.81 15.50 238.73 15.50L238.73 15.50L237.23 15.50Z" fill="#FFFFFF" x="128.03"/></svg>