<svg xmlns="http://www.w3.org/2000/svg" width="315.04" height="35" viewBox="0 0 315.04 35"><rect class="svg__rect" x="0" y="0" width="127.25" height="35" fill="#8FC965"/><rect class="svg__rect" x="125.25" y="0" width="189.79000000000002" height="35" fill="#419B5A"/><path class="svg__text" d="M15.70 22L14.22 22L14.22 13.47L17.48 13.47Q18.91 13.47 19.75 14.21Q20.59 14.96 20.59 16.18L20.59 16.18Q20.59 17.44 19.77 18.13Q18.95 18.83 17.46 18.83L17.46 18.83L15.70 18.83L15.70 22ZM15.70 14.66L15.70 17.64L17.48 17.64Q18.27 17.64 18.69 17.27Q19.10 16.90 19.10 16.19L19.10 16.19Q19.10 15.50 18.68 15.09Q18.26 14.68 17.52 14.66L17.52 14.66L15.70 14.66ZM24.61 18.00L24.61 18.00L24.61 17.52Q24.61 16.28 25.05 15.32Q25.49 14.37 26.30 13.86Q27.10 13.35 28.14 13.35Q29.19 13.35 29.99 13.85Q30.80 14.35 31.24 15.29Q31.68 16.23 31.68 17.48L31.68 17.48L31.68 17.96Q31.68 19.21 31.25 20.16Q30.82 21.10 30.01 21.61Q29.21 22.12 28.16 22.12L28.16 22.12Q27.12 22.12 26.31 21.61Q25.50 21.10 25.05 20.17Q24.61 19.23 24.61 18.00ZM26.09 17.46L26.09 17.96Q26.09 19.36 26.64 20.13Q27.18 20.90 28.16 20.90L28.16 20.90Q29.14 20.90 29.67 20.15Q30.20 19.40 30.20 17.96L30.20 17.96L30.20 17.51Q30.20 16.09 29.67 15.34Q29.13 14.58 28.14 14.58L28.14 14.58Q27.18 14.58 26.64 15.33Q26.10 16.09 26.09 17.46L26.09 17.46ZM37.53 22L35.56 13.47L37.03 13.47L38.36 19.88L39.99 13.47L41.23 13.47L42.84 19.89L44.15 13.47L45.62 13.47L43.65 22L42.24 22L40.61 15.77L38.96 22L37.53 22ZM55.27 22L49.70 22L49.70 13.47L55.23 13.47L55.23 14.66L51.18 14.66L51.18 17.02L54.68 17.02L54.68 18.19L51.18 18.19L51.18 20.82L55.27 20.82L55.27 22ZM60.95 22L59.47 22L59.47 13.47L62.47 13.47Q63.95 13.47 64.75 14.13Q65.55 14.79 65.55 16.05L65.55 16.05Q65.55 16.90 65.14 17.48Q64.72 18.06 63.99 18.37L63.99 18.37L65.90 21.92L65.90 22L64.31 22L62.60 18.71L60.95 18.71L60.95 22ZM60.95 14.66L60.95 17.52L62.48 17.52Q63.23 17.52 63.65 17.15Q64.07 16.77 64.07 16.11L64.07 16.11Q64.07 15.43 63.68 15.05Q63.29 14.68 62.52 14.66L62.52 14.66L60.95 14.66ZM75.52 22L69.95 22L69.95 13.47L75.48 13.47L75.48 14.66L71.43 14.66L71.43 17.02L74.93 17.02L74.93 18.19L71.43 18.19L71.43 20.82L75.52 20.82L75.52 22ZM82.17 22L79.72 22L79.72 13.47L82.24 13.47Q83.37 13.47 84.25 13.97Q85.12 14.48 85.60 15.40Q86.08 16.33 86.08 17.52L86.08 17.52L86.08 17.95Q86.08 19.16 85.60 20.08Q85.12 21.00 84.22 21.50Q83.33 22 82.17 22L82.17 22ZM81.20 14.66L81.20 20.82L82.17 20.82Q83.33 20.82 83.96 20.09Q84.58 19.36 84.59 17.99L84.59 17.99L84.59 17.52Q84.59 16.13 83.99 15.40Q83.39 14.66 82.24 14.66L82.24 14.66L81.20 14.66ZM99.64 22L96.52 22L96.52 13.47L99.45 13.47Q100.89 13.47 101.65 14.05Q102.41 14.63 102.41 15.78L102.41 15.78Q102.41 16.36 102.09 16.83Q101.77 17.30 101.16 17.56L101.16 17.56Q101.86 17.75 102.23 18.26Q102.61 18.78 102.61 19.51L102.61 19.51Q102.61 20.71 101.84 21.36Q101.07 22 99.64 22L99.64 22ZM98.01 18.15L98.01 20.82L99.65 20.82Q100.35 20.82 100.74 20.47Q101.14 20.13 101.14 19.51L101.14 19.51Q101.14 18.18 99.78 18.15L99.78 18.15L98.01 18.15ZM98.01 14.66L98.01 17.06L99.46 17.06Q100.15 17.06 100.54 16.75Q100.93 16.43 100.93 15.86L100.93 15.86Q100.93 15.23 100.57 14.95Q100.21 14.66 99.45 14.66L99.45 14.66L98.01 14.66ZM109.12 18.86L106.26 13.47L107.90 13.47L109.87 17.51L111.83 13.47L113.47 13.47L110.61 18.86L110.61 22L109.12 22L109.12 18.86Z" fill="#FFFFFF"/><path class="svg__text" d="M140.86 22L138.43 22L142.14 13.60L144.48 13.60L148.20 22L145.73 22L145.07 20.37L141.52 20.37L140.86 22ZM143.29 15.93L142.21 18.61L144.37 18.61L143.29 15.93ZM154.55 22L152.35 22L152.35 13.60L154.31 13.60L157.26 18.45L160.14 13.60L162.10 13.60L162.12 22L159.94 22L159.92 17.55L157.75 21.17L156.70 21.17L154.55 17.67L154.55 22ZM168.70 22L166.27 22L169.98 13.60L172.33 13.60L176.04 22L173.57 22L172.91 20.37L169.36 20.37L168.70 22ZM171.14 15.93L170.05 18.61L172.22 18.61L171.14 15.93ZM187.30 22L179.78 22L179.78 20.51L184.02 15.48L179.89 15.48L179.89 13.60L187.12 13.60L187.12 15.09L182.89 20.11L187.30 20.11L187.30 22ZM194.21 22L191.83 22L191.83 13.60L194.21 13.60L194.21 22ZM201.71 22L199.38 22L199.38 13.60L201.34 13.60L205.05 18.07L205.05 13.60L207.37 13.60L207.37 22L205.42 22L201.71 17.52L201.71 22ZM212.11 17.80L212.11 17.80Q212.11 16.54 212.70 15.54Q213.30 14.55 214.37 13.99Q215.44 13.43 216.78 13.43L216.78 13.43Q217.96 13.43 218.90 13.83Q219.83 14.22 220.46 14.97L220.46 14.97L218.94 16.33Q218.10 15.40 216.92 15.40L216.92 15.40Q216.91 15.40 216.90 15.40L216.90 15.40Q215.83 15.40 215.16 16.06Q214.50 16.71 214.50 17.80L214.50 17.80Q214.50 18.50 214.80 19.04Q215.11 19.59 215.64 19.89Q216.18 20.20 216.88 20.20L216.88 20.20Q217.57 20.20 218.16 19.93L218.16 19.93L218.16 17.62L220.26 17.62L220.26 21.10Q219.54 21.61 218.61 21.89Q217.67 22.17 216.73 22.17L216.73 22.17Q215.42 22.17 214.36 21.61Q213.30 21.05 212.70 20.05Q212.11 19.06 212.11 17.80ZM234.61 22L232.23 22L232.23 13.60L236.07 13.60Q237.21 13.60 238.05 13.98Q238.89 14.35 239.35 15.06Q239.80 15.76 239.80 16.71L239.80 16.71Q239.80 17.66 239.35 18.35Q238.89 19.05 238.05 19.42Q237.21 19.80 236.07 19.80L236.07 19.80L234.61 19.80L234.61 22ZM234.61 15.47L234.61 17.93L235.92 17.93Q236.66 17.93 237.03 17.61Q237.40 17.29 237.40 16.71L237.40 16.71Q237.40 16.12 237.03 15.80Q236.66 15.47 235.92 15.47L235.92 15.47L234.61 15.47ZM244.13 17.80L244.13 17.80Q244.13 16.55 244.73 15.55Q245.33 14.56 246.40 14.00Q247.46 13.43 248.79 13.43L248.79 13.43Q250.12 13.43 251.18 14.00Q252.25 14.56 252.85 15.55Q253.46 16.55 253.46 17.80L253.46 17.80Q253.46 19.05 252.85 20.04Q252.25 21.04 251.19 21.60Q250.13 22.17 248.79 22.17L248.79 22.17Q247.46 22.17 246.40 21.60Q245.33 21.04 244.73 20.04Q244.13 19.05 244.13 17.80ZM246.52 17.80L246.52 17.80Q246.52 18.51 246.83 19.05Q247.13 19.60 247.64 19.90Q248.16 20.20 248.79 20.20L248.79 20.20Q249.43 20.20 249.95 19.90Q250.46 19.60 250.76 19.05Q251.06 18.51 251.06 17.80L251.06 17.80Q251.06 17.09 250.76 16.54Q250.46 16 249.95 15.70Q249.43 15.40 248.79 15.40L248.79 15.40Q248.15 15.40 247.64 15.70Q247.13 16 246.83 16.54Q246.52 17.09 246.52 17.80ZM259.98 15.48L257.40 15.48L257.40 13.60L264.92 13.60L264.92 15.48L262.36 15.48L262.36 22L259.98 22L259.98 15.48ZM270.71 22L268.29 22L271.99 13.60L274.34 13.60L278.05 22L275.59 22L274.92 20.37L271.37 20.37L270.71 22ZM273.15 15.93L272.06 18.61L274.23 18.61L273.15 15.93ZM284.00 15.48L281.42 15.48L281.42 13.60L288.94 13.60L288.94 15.48L286.37 15.48L286.37 22L284.00 22L284.00 15.48ZM292.88 17.80L292.88 17.80Q292.88 16.55 293.49 15.55Q294.09 14.56 295.15 14.00Q296.22 13.43 297.55 13.43L297.55 13.43Q298.88 13.43 299.94 14.00Q301.00 14.56 301.61 15.55Q302.22 16.55 302.22 17.80L302.22 17.80Q302.22 19.05 301.61 20.04Q301.00 21.04 299.94 21.60Q298.88 22.17 297.55 22.17L297.55 22.17Q296.22 22.17 295.15 21.60Q294.09 21.04 293.49 20.04Q292.88 19.05 292.88 17.80ZM295.28 17.80L295.28 17.80Q295.28 18.51 295.58 19.05Q295.88 19.60 296.40 19.90Q296.91 20.20 297.55 20.20L297.55 20.20Q298.19 20.20 298.70 19.90Q299.22 19.60 299.52 19.05Q299.81 18.51 299.81 17.80L299.81 17.80Q299.81 17.09 299.52 16.54Q299.22 16 298.70 15.70Q298.19 15.40 297.55 15.40L297.55 15.40Q296.91 15.40 296.40 15.70Q295.88 16 295.58 16.54Q295.28 17.09 295.28 17.80Z" fill="#FFFFFF" x="138.25"/></svg>