<svg xmlns="http://www.w3.org/2000/svg" width="315.04" height="35" viewBox="0 0 315.04 35"><rect class="svg__rect" x="0" y="0" width="127.25" height="35" fill="#C1D72F"/><rect class="svg__rect" x="125.25" y="0" width="189.79000000000002" height="35" fill="#5D9741"/><path class="svg__text" d="M15.70 22L14.22 22L14.22 13.47L17.48 13.47Q18.91 13.47 19.75 14.21Q20.59 14.96 20.59 16.18L20.59 16.18Q20.59 17.44 19.77 18.13Q18.95 18.83 17.46 18.83L17.46 18.83L15.70 18.83L15.70 22ZM15.70 14.66L15.70 17.64L17.48 17.64Q18.27 17.64 18.69 17.27Q19.10 16.90 19.10 16.19L19.10 16.19Q19.10 15.50 18.68 15.09Q18.26 14.68 17.52 14.66L17.52 14.66L15.70 14.66ZM24.61 18.00L24.61 18.00L24.61 17.52Q24.61 16.28 25.05 15.32Q25.49 14.37 26.30 13.86Q27.10 13.35 28.14 13.35Q29.19 13.35 29.99 13.85Q30.80 14.35 31.24 15.29Q31.68 16.23 31.68 17.48L31.68 17.48L31.68 17.96Q31.68 19.21 31.25 20.16Q30.82 21.10 30.01 21.61Q29.21 22.12 28.16 22.12L28.16 22.12Q27.12 22.12 26.31 21.61Q25.50 21.10 25.05 20.17Q24.61 19.23 24.61 18.00ZM26.09 17.46L26.09 17.96Q26.09 19.36 26.64 20.13Q27.18 20.90 28.16 20.90L28.16 20.90Q29.14 20.90 29.67 20.15Q30.20 19.40 30.20 17.96L30.20 17.96L30.20 17.51Q30.20 16.09 29.67 15.34Q29.13 14.58 28.14 14.58L28.14 14.58Q27.18 14.58 26.64 15.33Q26.10 16.09 26.09 17.46L26.09 17.46ZM37.53 22L35.56 13.47L37.03 13.47L38.36 19.88L39.99 13.47L41.23 13.47L42.84 19.89L44.15 13.47L45.62 13.47L43.65 22L42.24 22L40.61 15.77L38.96 22L37.53 22ZM55.27 22L49.70 22L49.70 13.47L55.23 13.47L55.23 14.66L51.18 14.66L51.18 17.02L54.68 17.02L54.68 18.19L51.18 18.19L51.18 20.82L55.27 20.82L55.27 22ZM60.95 22L59.47 22L59.47 13.47L62.47 13.47Q63.95 13.47 64.75 14.13Q65.55 14.79 65.55 16.05L65.55 16.05Q65.55 16.90 65.14 17.48Q64.72 18.06 63.99 18.37L63.99 18.37L65.90 21.92L65.90 22L64.31 22L62.60 18.71L60.95 18.71L60.95 22ZM60.95 14.66L60.95 17.52L62.48 17.52Q63.23 17.52 63.65 17.15Q64.07 16.77 64.07 16.11L64.07 16.11Q64.07 15.43 63.68 15.05Q63.29 14.68 62.52 14.66L62.52 14.66L60.95 14.66ZM75.52 22L69.95 22L69.95 13.47L75.48 13.47L75.48 14.66L71.43 14.66L71.43 17.02L74.93 17.02L74.93 18.19L71.43 18.19L71.43 20.82L75.52 20.82L75.52 22ZM82.17 22L79.72 22L79.72 13.47L82.24 13.47Q83.37 13.47 84.25 13.97Q85.12 14.48 85.60 15.40Q86.08 16.33 86.08 17.52L86.08 17.52L86.08 17.95Q86.08 19.16 85.60 20.08Q85.12 21.00 84.22 21.50Q83.33 22 82.17 22L82.17 22ZM81.20 14.66L81.20 20.82L82.17 20.82Q83.33 20.82 83.96 20.09Q84.58 19.36 84.59 17.99L84.59 17.99L84.59 17.52Q84.59 16.13 83.99 15.40Q83.39 14.66 82.24 14.66L82.24 14.66L81.20 14.66ZM99.64 22L96.52 22L96.52 13.47L99.45 13.47Q100.89 13.47 101.65 14.05Q102.41 14.63 102.41 15.78L102.41 15.78Q102.41 16.36 102.09 16.83Q101.77 17.30 101.16 17.56L101.16 17.56Q101.86 17.75 102.23 18.26Q102.61 18.78 102.61 19.51L102.61 19.51Q102.61 20.71 101.84 21.36Q101.07 22 99.64 22L99.64 22ZM98.01 18.15L98.01 20.82L99.65 20.82Q100.35 20.82 100.74 20.47Q101.14 20.13 101.14 19.51L101.14 19.51Q101.14 18.18 99.78 18.15L99.78 18.15L98.01 18.15ZM98.01 14.66L98.01 17.06L99.46 17.06Q100.15 17.06 100.54 16.75Q100.93 16.43 100.93 15.86L100.93 15.86Q100.93 15.23 100.57 14.95Q100.21 14.66 99.45 14.66L99.45 14.66L98.01 14.66ZM109.12 18.86L106.26 13.47L107.90 13.47L109.87 17.51L111.83 13.47L113.47 13.47L110.61 18.86L110.61 22L109.12 22L109.12 18.86Z" fill="#FFFFFF"/><path class="svg__text" d="M140.86 22L138.43 22L142.14 13.60L144.48 13.60L148.20 22L145.73 22L145.07 20.37L141.52 20.37L140.86 22ZM143.29 15.93L142.21 18.61L144.37 18.61L143.29 15.93ZM154.55 22L152.35 22L152.35 13.60L154.31 13.60L157.26 18.45L160.14 13.60L162.10 13.60L162.12 22L159.94 22L159.92 17.55L157.75 21.17L156.70 21.17L154.55 17.67L154.55 22ZM174.39 22L166.87 22L166.87 20.51L171.10 15.48L166.97 15.48L166.97 13.60L174.21 13.60L174.21 15.09L169.97 20.11L174.39 20.11L174.39 22ZM181.29 22L178.91 22L178.91 13.60L181.29 13.60L181.29 22ZM188.80 22L186.47 22L186.47 13.60L188.42 13.60L192.13 18.07L192.13 13.60L194.46 13.60L194.46 22L192.51 22L188.80 17.52L188.80 22ZM199.19 17.80L199.19 17.80Q199.19 16.54 199.79 15.54Q200.39 14.55 201.46 13.99Q202.53 13.43 203.87 13.43L203.87 13.43Q205.05 13.43 205.98 13.83Q206.92 14.22 207.54 14.97L207.54 14.97L206.03 16.33Q205.19 15.40 204.01 15.40L204.01 15.40Q204.00 15.40 203.99 15.40L203.99 15.40Q202.91 15.40 202.25 16.06Q201.59 16.71 201.59 17.80L201.59 17.80Q201.59 18.50 201.89 19.04Q202.19 19.59 202.73 19.89Q203.27 20.20 203.97 20.20L203.97 20.20Q204.65 20.20 205.25 19.93L205.25 19.93L205.25 17.62L207.35 17.62L207.35 21.10Q206.63 21.61 205.69 21.89Q204.76 22.17 203.82 22.17L203.82 22.17Q202.50 22.17 201.44 21.61Q200.39 21.05 199.79 20.05Q199.19 19.06 199.19 17.80ZM221.69 22L219.31 22L219.31 13.60L223.16 13.60Q224.29 13.60 225.13 13.98Q225.97 14.35 226.43 15.06Q226.89 15.76 226.89 16.71L226.89 16.71Q226.89 17.66 226.43 18.35Q225.97 19.05 225.13 19.42Q224.29 19.80 223.16 19.80L223.16 19.80L221.69 19.80L221.69 22ZM221.69 15.47L221.69 17.93L223.01 17.93Q223.74 17.93 224.11 17.61Q224.49 17.29 224.49 16.71L224.49 16.71Q224.49 16.12 224.11 15.80Q223.74 15.47 223.01 15.47L223.01 15.47L221.69 15.47ZM231.21 17.80L231.21 17.80Q231.21 16.55 231.82 15.55Q232.42 14.56 233.48 14.00Q234.55 13.43 235.88 13.43L235.88 13.43Q237.21 13.43 238.27 14.00Q239.33 14.56 239.94 15.55Q240.55 16.55 240.55 17.80L240.55 17.80Q240.55 19.05 239.94 20.04Q239.33 21.04 238.27 21.60Q237.21 22.17 235.88 22.17L235.88 22.17Q234.55 22.17 233.48 21.60Q232.42 21.04 231.82 20.04Q231.21 19.05 231.21 17.80ZM233.61 17.80L233.61 17.80Q233.61 18.51 233.91 19.05Q234.21 19.60 234.73 19.90Q235.24 20.20 235.88 20.20L235.88 20.20Q236.52 20.20 237.03 19.90Q237.55 19.60 237.85 19.05Q238.14 18.51 238.14 17.80L238.14 17.80Q238.14 17.09 237.85 16.54Q237.55 16 237.03 15.70Q236.52 15.40 235.88 15.40L235.88 15.40Q235.24 15.40 234.73 15.70Q234.21 16 233.91 16.54Q233.61 17.09 233.61 17.80ZM246.69 22L244.27 22L247.98 13.60L250.32 13.60L254.04 22L251.57 22L250.91 20.37L247.36 20.37L246.69 22ZM249.13 15.93L248.05 18.61L250.21 18.61L249.13 15.93ZM259.98 15.48L257.40 15.48L257.40 13.60L264.92 13.60L264.92 15.48L262.36 15.48L262.36 22L259.98 22L259.98 15.48ZM270.71 22L268.29 22L271.99 13.60L274.34 13.60L278.05 22L275.59 22L274.92 20.37L271.37 20.37L270.71 22ZM273.15 15.93L272.06 18.61L274.23 18.61L273.15 15.93ZM284.00 15.48L281.42 15.48L281.42 13.60L288.94 13.60L288.94 15.48L286.37 15.48L286.37 22L284.00 22L284.00 15.48ZM292.88 17.80L292.88 17.80Q292.88 16.55 293.49 15.55Q294.09 14.56 295.15 14.00Q296.22 13.43 297.55 13.43L297.55 13.43Q298.88 13.43 299.94 14.00Q301.00 14.56 301.61 15.55Q302.22 16.55 302.22 17.80L302.22 17.80Q302.22 19.05 301.61 20.04Q301.00 21.04 299.94 21.60Q298.88 22.17 297.55 22.17L297.55 22.17Q296.22 22.17 295.15 21.60Q294.09 21.04 293.49 20.04Q292.88 19.05 292.88 17.80ZM295.28 17.80L295.28 17.80Q295.28 18.51 295.58 19.05Q295.88 19.60 296.40 19.90Q296.91 20.20 297.55 20.20L297.55 20.20Q298.19 20.20 298.70 19.90Q299.22 19.60 299.52 19.05Q299.81 18.51 299.81 17.80L299.81 17.80Q299.81 17.09 299.52 16.54Q299.22 16 298.70 15.70Q298.19 15.40 297.55 15.40L297.55 15.40Q296.91 15.40 296.40 15.70Q295.88 16 295.58 16.54Q295.28 17.09 295.28 17.80Z" fill="#FFFFFF" x="138.25"/></svg>